# xmcd CD database file
#
# Track frame offsets:
#	150
#	23640
#	37327
#	56507
#	79222
#	96665
#	111170
#	137352
#	147715
#	169087
#	184522
#	201932
#	223410
#
# Disc length: 3269 seconds
#
# Revision: 7
# Processed by: cddbd v1.5PL3 Copyright (c) Steve Scherf et al.
# Submitted via: CDex 1.50beta8a
#
DISCID=c80cc30d
DTITLE=井上喜久子 - そらいろえほん_おひさまCD
DYEAR=2003
DGENRE=Vocal
TTITLE0=ひだまり
TTITLE1=ほっぺに約束
TTITLE2=ゆうびんポストのサンデー
TTITLE3=心配させてあげる
TTITLE4=ウェンデにゃん、月夜のおさんぽ
TTITLE5=ポーリンと少年
TTITLE6=夢見るポーリン
TTITLE7=でんぐりがえり
TTITLE8=俊敏ムスメの憂鬱
TTITLE9=夢見るコスチューム
TTITLE10=合い言葉はしあわせ
TTITLE11=がんばって負けないで
TTITLE12=そらいろのえほん〜風のように〜
EXTD=YEAR: 2003
EXTT0=
EXTT1=
EXTT2=
EXTT3=
EXTT4=
EXTT5=
EXTT6=
EXTT7=
EXTT8=
EXTT9=
EXTT10=
EXTT11=
EXTT12=
PLAYORDER=
